<svg width="317" height="293" viewBox="0 0 317 293" fill="none" xmlns="http://www.w3.org/2000/svg">
<path fill-rule="evenodd" clip-rule="evenodd" d="M248 24.1777C248 11.199 237.479 0.677734 224.5 0.677734H192C178.745 0.677734 168 11.4229 168 24.6777V56.6777C168 69.9326 178.745 80.6777 192 80.6777H213.5C226.479 80.6777 237 91.199 237 104.178C237 117.156 247.521 127.678 260.5 127.678H293C306.255 127.678 317 116.933 317 103.678V71.6777C317 58.4229 306.255 47.6777 293 47.6777H271.5C258.521 47.6777 248 37.1564 248 24.1777ZM0 104.678C0 91.4229 10.7452 80.6777 24 80.6777H56C69.2548 80.6777 80 91.4229 80 104.678V125.678C80 138.933 90.7452 149.678 104 149.678H127C140.255 149.678 151 160.423 151 173.678V205.678C151 218.933 140.255 229.678 127 229.678H104C90.7452 229.678 80 240.423 80 253.678V268.678C80 281.933 69.2548 292.678 56 292.678H24C10.7452 292.678 0 281.933 0 268.678V236.678C0 223.423 10.7452 212.678 24 212.678H47C60.2548 212.678 71 201.933 71 188.678V184.678C71 171.423 60.2548 160.678 47 160.678H24C10.7452 160.678 0 149.933 0 136.678V104.678Z" fill="#15131D"/>
</svg>
