<svg width="451" height="266" viewBox="0 0 451 266" fill="none" xmlns="http://www.w3.org/2000/svg">
<path fill-rule="evenodd" clip-rule="evenodd" d="M303 25C303 24.0715 303 23.6073 302.987 23.2147C302.573 10.576 292.424 0.426598 279.785 0.0128499C279.393 0 278.928 0 278 0H261.4C247.959 0 241.238 0 236.104 2.61584C231.588 4.9168 227.917 8.58834 225.616 13.1042C223 18.2381 223 24.9587 223 38.4V46C223 55.3083 223 59.9624 224.274 63.7145C226.672 70.7799 232.22 76.3279 239.285 78.7263C243.038 80 247.692 80 257 80H275C283.837 80 291 87.1634 291 96V96C291 104.837 283.837 112 275 112H223H217H181.4C167.959 112 161.238 112 156.104 114.616C151.588 116.917 147.917 120.588 145.616 125.104C143 130.238 143 136.959 143 150.4V153.6C143 167.041 143 173.762 145.616 178.896C147.917 183.412 151.588 187.083 156.104 189.384C161.238 192 167.959 192 181.4 192H217H223H237.5C246.341 192 250.761 192 254.342 193.15C261.709 195.518 267.482 201.291 269.85 208.658C271 212.239 271 216.659 271 225.5V225.5C271 234.341 271 238.761 272.15 242.342C274.518 249.709 280.291 255.482 287.658 257.85C291.239 259 295.659 259 304.5 259H312.6C326.041 259 332.762 259 337.896 256.384C342.412 254.083 346.083 250.412 348.384 245.896C351 240.762 351 234.041 351 220.6V206C351 203.214 351 201.821 350.884 200.648C349.762 189.253 340.747 180.238 329.352 179.116C328.179 179 326.786 179 324 179H321.5C321.036 179 320.804 179 320.607 178.997C307.66 178.785 297.215 168.34 297.003 155.393C297 155.196 297 154.964 297 154.5V154.5C297 154.036 297 153.804 297.003 153.607C297.215 140.66 307.66 130.215 320.607 130.003C320.804 130 321.036 130 321.5 130H371H412.6C426.041 130 432.762 130 437.896 127.384C442.412 125.083 446.083 121.412 448.384 116.896C451 111.762 451 105.041 451 91.6V88.4C451 74.9587 451 68.2381 448.384 63.1042C446.083 58.5883 442.412 54.9168 437.896 52.6158C432.762 50 426.041 50 412.6 50H371H328C327.072 50 326.607 50 326.215 49.9872C313.576 49.5734 303.427 39.424 303.013 26.7853C303 26.3927 303 25.9285 303 25V25ZM80 151C80 140.755 80 135.633 78.4617 131.546C76.0272 125.078 70.9224 119.973 64.454 117.538C60.3669 116 55.2446 116 45 116H38.4C24.9587 116 18.2381 116 13.1042 118.616C8.58834 120.917 4.9168 124.588 2.61584 129.104C0 134.238 0 140.959 0 154.4V170.5C0 171.893 0 172.589 0.0289091 173.178C0.634589 185.507 10.4935 195.365 22.8224 195.971C23.4108 196 24.1072 196 25.5 196V196C26.8928 196 27.5892 196 28.1776 196.029C40.5065 196.635 50.3654 206.493 50.9711 218.822C51 219.411 51 220.107 51 221.5V231C51 241.245 51 246.367 52.5383 250.454C54.9728 256.922 60.0776 262.027 66.546 264.462C70.6331 266 75.7554 266 86 266H92.6C106.041 266 112.762 266 117.896 263.384C122.412 261.083 126.083 257.412 128.384 252.896C131 247.762 131 241.041 131 227.6V211.5C131 210.107 131 209.411 130.971 208.822C130.365 196.493 120.507 186.635 108.178 186.029C107.589 186 106.893 186 105.5 186V186C104.107 186 103.411 186 102.822 185.971C90.4935 185.365 80.6346 175.507 80.0289 163.178C80 162.589 80 161.893 80 160.5V151Z" fill="#15131D"/>
</svg>
